<?xml version="1.0"?>
<svg xmlns="http://www.w3.org/2000/svg" height="512px" viewBox="0 -21 511.99912 511" width="512px" class=""><g><path d="m102.398438 119.964844c-4.707032 0-8.53125-3.8125-8.53125-8.53125v-59.734375h-17.066407c-4.710937 0-8.535156-3.8125-8.535156-8.53125s3.824219-8.535157 8.535156-8.535157h25.597657c4.710937 0 8.535156 3.816407 8.535156 8.535157v68.265625c0 4.71875-3.824219 8.53125-8.535156 8.53125zm0 0" data-original="#000000" class="active-path" data-old_color="#000000" fill="#FFFFFF"/><path d="m187.734375 469.832031c-23.527344 0-42.667969-19.140625-42.667969-42.664062 0-23.527344 19.140625-42.667969 42.667969-42.667969 23.523437 0 42.664063 19.140625 42.664063 42.667969 0 23.523437-19.140626 42.664062-42.664063 42.664062zm0-68.265625c-14.113281 0-25.601563 11.484375-25.601563 25.601563 0 14.113281 11.488282 25.597656 25.601563 25.597656s25.597656-11.484375 25.597656-25.597656c0-14.117188-11.484375-25.601563-25.597656-25.601563zm0 0" data-original="#000000" class="active-path" data-old_color="#000000" fill="#FFFFFF"/><path d="m392.535156 469.832031c-23.527344 0-42.667968-19.140625-42.667968-42.664062 0-23.527344 19.140624-42.667969 42.667968-42.667969 23.523438 0 42.664063 19.140625 42.664063 42.667969 0 23.523437-19.140625 42.664062-42.664063 42.664062zm0-68.265625c-14.117187 0-25.601562 11.484375-25.601562 25.601563 0 14.113281 11.484375 25.597656 25.601562 25.597656 14.113282 0 25.597656-11.484375 25.597656-25.597656 0-14.117188-11.484374-25.601563-25.597656-25.601563zm0 0" data-original="#000000" class="active-path" data-old_color="#000000" fill="#FFFFFF"/><path d="m452.265625 401.566406h-273.066406c-47.050781 0-85.332031-38.28125-85.332031-85.332031 0-4.71875 3.824218-8.535156 8.53125-8.535156 4.710937 0 8.535156 3.816406 8.535156 8.535156 0 37.640625 30.625 68.265625 68.265625 68.265625h273.066406c4.710937 0 8.535156 3.8125 8.535156 8.53125s-3.824219 8.535156-8.535156 8.535156zm0 0" data-original="#000000" class="active-path" data-old_color="#000000" fill="#FFFFFF"/><path d="m59.734375 68.765625h-34.132813c-14.117187 0-25.601562-11.484375-25.601562-25.597656 0-14.117188 11.484375-25.601563 25.601562-25.601563h34.132813c14.113281 0 25.597656 11.484375 25.597656 25.601563 0 14.113281-11.484375 25.597656-25.597656 25.597656zm-34.132813-34.132813c-4.710937 0-8.535156 3.824219-8.535156 8.535157 0 4.707031 3.824219 8.53125 8.535156 8.53125h34.132813c4.710937 0 8.53125-3.824219 8.53125-8.53125 0-4.710938-3.820313-8.535157-8.53125-8.535157zm0 0" data-original="#000000" class="active-path" data-old_color="#000000" fill="#FFFFFF"/><path d="m460.800781 324.765625h-358.402343c-4.707032 0-8.53125-3.8125-8.53125-8.53125v-51.203125c0-4.71875 3.824218-8.53125 8.53125-8.53125h369.066406c2.570312 0 5.003906 1.160156 6.625 3.148438 1.621094 1.988281 2.25 4.609374 1.730468 7.125l-10.667968 51.199218c-.824219 3.960938-4.308594 6.792969-8.351563 6.792969zm-349.867187-17.066406h342.929687l7.105469-34.132813h-350.035156zm0 0" data-original="#000000" class="active-path" data-old_color="#000000" fill="#FFFFFF"/><path d="m460.800781 324.765625h-358.402343c-4.707032 0-8.53125-3.8125-8.53125-8.53125v-204.800781c0-4.71875 3.824218-8.535156 8.53125-8.535156h121.183593c4.0625 0 7.550781 2.859374 8.363281 6.835937 7.226563 35.601563 38.878907 61.433594 75.253907 61.433594 36.378906 0 68.027343-25.832031 75.257812-61.433594.808594-3.976563 4.308594-6.835937 8.359375-6.835937h112.648438c2.570312 0 5.003906 1.160156 6.625 3.148437s2.25 4.609375 1.730468 7.125l-42.667968 204.800781c-.824219 3.960938-4.308594 6.792969-8.351563 6.792969zm-349.867187-17.066406h342.929687l39.105469-187.734375h-95.445312c-11.304688 39.953125-48.21875 68.269531-90.324219 68.269531-42.101563 0-79.019531-28.316406-90.324219-68.269531h-105.941406zm0 0" data-original="#000000" class="active-path" data-old_color="#000000" fill="#FFFFFF"/><path d="m482.132812 222.367188h-379.734374c-4.707032 0-8.53125-3.816407-8.53125-8.535157v-51.199219c0-4.71875 3.824218-8.535156 8.53125-8.535156h153.753906c1.84375 0 3.636718.597656 5.113281 1.699219 13.421875 10.054687 29.3125 15.371094 45.933594 15.371094 16.625 0 32.511719-5.316407 45.9375-15.371094 1.472656-1.101563 3.265625-1.699219 5.109375-1.699219h134.554687c2.566407 0 5 1.164063 6.621094 3.152344s2.253906 4.605469 1.730469 7.125l-10.664063 51.199219c-.828125 3.957031-4.308593 6.792969-8.355469 6.792969zm-371.199218-17.066407h364.261718l7.109376-34.132812h-121.292969c-15.890625 11.175781-34.433594 17.066406-53.8125 17.066406-19.378907 0-37.921875-5.890625-53.808594-17.066406h-142.457031zm0 0" data-original="#000000" class="active-path" data-old_color="#000000" fill="#FFFFFF"/><path d="m307.199219 188.234375c-51.753907 0-93.867188-42.113281-93.867188-93.867187 0-51.753907 42.113281-93.867188 93.867188-93.867188 51.753906 0 93.867187 42.113281 93.867187 93.867188 0 51.753906-42.113281 93.867187-93.867187 93.867187zm0-170.667969c-42.351563 0-76.800781 34.449219-76.800781 76.800782 0 42.351562 34.449218 76.800781 76.800781 76.800781 42.351562 0 76.800781-34.449219 76.800781-76.800781 0-42.351563-34.449219-76.800782-76.800781-76.800782zm0 0" data-original="#000000" class="active-path" data-old_color="#000000" fill="#FFFFFF"/><path d="m349.867188 102.898438h-85.332032c-4.710937 0-8.535156-3.8125-8.535156-8.53125s3.824219-8.535157 8.535156-8.535157h85.332032c4.710937 0 8.53125 3.816407 8.53125 8.535157s-3.820313 8.53125-8.53125 8.53125zm0 0" data-original="#000000" class="active-path" data-old_color="#000000" fill="#FFFFFF"/><path d="m307.199219 145.566406c-4.710938 0-8.53125-3.816406-8.53125-8.535156v-85.332031c0-4.71875 3.820312-8.53125 8.53125-8.53125 4.710937 0 8.535156 3.8125 8.535156 8.53125v85.332031c0 4.71875-3.824219 8.535156-8.535156 8.535156zm0 0" data-original="#000000" class="active-path" data-old_color="#000000" fill="#FFFFFF"/></g> </svg>
